<svg xmlns="http://www.w3.org/2000/svg" viewBox="0 0 256 256" fill="none">
  <defs>
    <linearGradient id="bg" x1="0" y1="0" x2="256" y2="256">
      <stop offset="0%" stop-color="#4F46E5"/>
      <stop offset="100%" stop-color="#7C3AED"/>
    </linearGradient>
    <linearGradient id="fold" x1="32" y1="48" x2="224" y2="208">
      <stop offset="0%" stop-color="#FEF3C7"/>
      <stop offset="100%" stop-color="#FCD34D"/>
    </linearGradient>
    <linearGradient id="playBtn" x1="0" y1="0" x2="1" y2="1">
      <stop offset="0%" stop-color="#34D399"/>
      <stop offset="100%" stop-color="#059669"/>
    </linearGradient>
  </defs>

  <rect width="256" height="256" rx="56" fill="url(#bg)"/>

  <path d="M200 96h-76l-8-8H72c-8.8 0-16 7.2-16 16v80c0 8.8 7.2 16 16 16h128c8.8 0 16-7.2 16-16v-72c0-8.8-7.2-16-16-16z"
        fill="url(#fold)" stroke="#D97706" stroke-width="2.5"/>
  <path d="M72 88h24l8 8" stroke="#D97706" stroke-width="2.5" fill="none"/>

  <line x1="88" y1="136" x2="165" y2="136" stroke="#B45309" stroke-width="3.5" stroke-linecap="round"/>
  <line x1="88" y1="152" x2="145" y2="152" stroke="#B45309" stroke-width="3.5" stroke-linecap="round"/>
  <line x1="88" y1="168" x2="158" y2="168" stroke="#B45309" stroke-width="3.5" stroke-linecap="round"/>

  <circle cx="198" cy="152" r="32" fill="url(#playBtn)" stroke="#047857" stroke-width="2.5"/>
  <path d="M189 140v24l18-12z" fill="#fff"/>

  <text x="128" y="228" font-family="system-ui,-apple-system,sans-serif" font-size="20" font-weight="700" fill="#E0E7FF" text-anchor="middle" letter-spacing="2.5">localfs</text>
</svg>
