<svg xmlns="http://www.w3.org/2000/svg" viewBox="0 0 256 256" fill="none" role="img" aria-label="localfs logo">
  <defs>
    <linearGradient id="bg" x1="0" y1="0" x2="256" y2="256">
      <stop offset="0%" stop-color="#4F46E5"/>
      <stop offset="100%" stop-color="#7C3AED"/>
    </linearGradient>
    <linearGradient id="folder" x1="32" y1="48" x2="224" y2="208">
      <stop offset="0%" stop-color="#FEF3C7"/>
      <stop offset="100%" stop-color="#FDE68A"/>
    </linearGradient>
  </defs>

  <rect width="256" height="256" rx="56" fill="url(#bg)"/>

  <path d="M48 80 Q48 64 64 64 L104 64 L120 80 L208 80 Q224 80 224 96 L224 176 Q224 192 208 192 L64 192 Q48 192 48 176 Z"
        fill="url(#folder)" stroke="#D97706" stroke-width="3"/>

  <path d="M88 128 L136 128 M88 144 L120 144 M88 160 L152 160"
        stroke="#92400E" stroke-width="5" stroke-linecap="round"/>

  <circle cx="192" cy="152" r="28" fill="#34D399" stroke="#065F46" stroke-width="3"/>
  <path d="M184 152 L196 160 L204 146" stroke="#065F46" stroke-width="3.5" stroke-linecap="round" stroke-linejoin="round" fill="none"/>

  <text x="128" y="228" font-family="system-ui, -apple-system, sans-serif" font-size="22" font-weight="700" fill="#E0E7FF" text-anchor="middle" letter-spacing="2">localfs</text>
</svg>
